<mxfile host="app.diagrams.net" modified="2024-05-15T15:59:39.306Z" agent="Mozilla/5.0 (Windows NT 10.0; Win64; x64) AppleWebKit/537.36 (KHTML, like Gecko) Chrome/124.0.0.0 Safari/537.36" etag="PmwwNmHtNCfFjlLkLHF3" version="24.3.1" type="device">
  <diagram name="Page-1" id="LVkfhNQGLRpLsRczniN1">
    <mxGraphModel dx="3240" dy="1260" grid="1" gridSize="10" guides="1" tooltips="1" connect="1" arrows="1" fold="1" page="1" pageScale="1" pageWidth="850" pageHeight="1100" math="0" shadow="0">
      <root>
        <mxCell id="0" />
        <mxCell id="1" parent="0" />
        <mxCell id="PJYJ61MTsyM6jZx0EHo--5" style="edgeStyle=orthogonalEdgeStyle;rounded=0;orthogonalLoop=1;jettySize=auto;html=1;entryX=0;entryY=0.5;entryDx=0;entryDy=0;fontSize=24;" parent="1" source="PJYJ61MTsyM6jZx0EHo--2" target="PJYJ61MTsyM6jZx0EHo--4" edge="1">
          <mxGeometry relative="1" as="geometry" />
        </mxCell>
        <mxCell id="PJYJ61MTsyM6jZx0EHo--13" style="edgeStyle=orthogonalEdgeStyle;rounded=0;orthogonalLoop=1;jettySize=auto;html=1;entryX=0;entryY=0.5;entryDx=0;entryDy=0;fontSize=24;" parent="1" source="PJYJ61MTsyM6jZx0EHo--2" target="PJYJ61MTsyM6jZx0EHo--14" edge="1">
          <mxGeometry relative="1" as="geometry">
            <mxPoint x="100" y="350" as="targetPoint" />
          </mxGeometry>
        </mxCell>
        <mxCell id="PJYJ61MTsyM6jZx0EHo--2" value="Start" style="ellipse;whiteSpace=wrap;html=1;fontSize=24;" parent="1" vertex="1">
          <mxGeometry x="-90" y="190" width="80" height="40" as="geometry" />
        </mxCell>
        <mxCell id="PJYJ61MTsyM6jZx0EHo--3" value="End" style="ellipse;whiteSpace=wrap;html=1;fontSize=24;" parent="1" vertex="1">
          <mxGeometry x="1120" y="122.5" width="80" height="40" as="geometry" />
        </mxCell>
        <mxCell id="PJYJ61MTsyM6jZx0EHo--7" value="" style="edgeStyle=orthogonalEdgeStyle;rounded=0;orthogonalLoop=1;jettySize=auto;html=1;fontSize=24;" parent="1" source="PJYJ61MTsyM6jZx0EHo--4" target="PJYJ61MTsyM6jZx0EHo--6" edge="1">
          <mxGeometry relative="1" as="geometry" />
        </mxCell>
        <mxCell id="PJYJ61MTsyM6jZx0EHo--4" value="Access the LAION-400M dataset" style="rounded=0;whiteSpace=wrap;html=1;fontSize=24;" parent="1" vertex="1">
          <mxGeometry x="70" y="220" width="140" height="120" as="geometry" />
        </mxCell>
        <mxCell id="PJYJ61MTsyM6jZx0EHo--10" value="" style="edgeStyle=orthogonalEdgeStyle;rounded=0;orthogonalLoop=1;jettySize=auto;html=1;fontSize=24;" parent="1" source="PJYJ61MTsyM6jZx0EHo--6" target="PJYJ61MTsyM6jZx0EHo--9" edge="1">
          <mxGeometry relative="1" as="geometry" />
        </mxCell>
        <mxCell id="PJYJ61MTsyM6jZx0EHo--28" style="edgeStyle=orthogonalEdgeStyle;rounded=0;orthogonalLoop=1;jettySize=auto;html=1;entryX=0;entryY=0.5;entryDx=0;entryDy=0;fontSize=24;" parent="1" source="PJYJ61MTsyM6jZx0EHo--6" target="PJYJ61MTsyM6jZx0EHo--29" edge="1">
          <mxGeometry relative="1" as="geometry">
            <mxPoint x="390" y="510" as="targetPoint" />
          </mxGeometry>
        </mxCell>
        <mxCell id="PJYJ61MTsyM6jZx0EHo--6" value="Retrieve images of doctors and nurses" style="rounded=0;whiteSpace=wrap;html=1;fontSize=24;" parent="1" vertex="1">
          <mxGeometry x="260" y="220" width="200" height="120" as="geometry" />
        </mxCell>
        <mxCell id="PJYJ61MTsyM6jZx0EHo--34" value="" style="edgeStyle=orthogonalEdgeStyle;rounded=0;orthogonalLoop=1;jettySize=auto;html=1;fontSize=24;" parent="1" source="PJYJ61MTsyM6jZx0EHo--9" target="PJYJ61MTsyM6jZx0EHo--33" edge="1">
          <mxGeometry relative="1" as="geometry" />
        </mxCell>
        <mxCell id="PJYJ61MTsyM6jZx0EHo--9" value="Human and model annotate the 97 image subsets" style="whiteSpace=wrap;html=1;rounded=0;fontSize=24;" parent="1" vertex="1">
          <mxGeometry x="500" y="220" width="230" height="120" as="geometry" />
        </mxCell>
        <mxCell id="PJYJ61MTsyM6jZx0EHo--24" value="" style="edgeStyle=orthogonalEdgeStyle;rounded=0;orthogonalLoop=1;jettySize=auto;html=1;fontSize=24;" parent="1" source="PJYJ61MTsyM6jZx0EHo--11" target="PJYJ61MTsyM6jZx0EHo--23" edge="1">
          <mxGeometry relative="1" as="geometry" />
        </mxCell>
        <mxCell id="PJYJ61MTsyM6jZx0EHo--11" value="Extract the image features&amp;nbsp;" style="whiteSpace=wrap;html=1;rounded=0;fontSize=24;" parent="1" vertex="1">
          <mxGeometry x="710" y="95" width="120" height="95" as="geometry" />
        </mxCell>
        <mxCell id="PJYJ61MTsyM6jZx0EHo--17" value="" style="edgeStyle=orthogonalEdgeStyle;rounded=0;orthogonalLoop=1;jettySize=auto;html=1;fontSize=24;" parent="1" source="PJYJ61MTsyM6jZx0EHo--14" target="PJYJ61MTsyM6jZx0EHo--16" edge="1">
          <mxGeometry relative="1" as="geometry" />
        </mxCell>
        <mxCell id="PJYJ61MTsyM6jZx0EHo--14" value="Access the generative models" style="rounded=0;whiteSpace=wrap;html=1;fontSize=24;" parent="1" vertex="1">
          <mxGeometry x="70" y="97.5" width="140" height="90" as="geometry" />
        </mxCell>
        <mxCell id="PJYJ61MTsyM6jZx0EHo--20" value="" style="edgeStyle=orthogonalEdgeStyle;rounded=0;orthogonalLoop=1;jettySize=auto;html=1;fontSize=24;" parent="1" source="PJYJ61MTsyM6jZx0EHo--16" target="PJYJ61MTsyM6jZx0EHo--19" edge="1">
          <mxGeometry relative="1" as="geometry" />
        </mxCell>
        <mxCell id="PJYJ61MTsyM6jZx0EHo--16" value="Generate images of doctors and nurses" style="whiteSpace=wrap;html=1;rounded=0;fontSize=24;" parent="1" vertex="1">
          <mxGeometry x="260" y="80" width="200" height="125" as="geometry" />
        </mxCell>
        <mxCell id="PJYJ61MTsyM6jZx0EHo--36" style="edgeStyle=orthogonalEdgeStyle;rounded=0;orthogonalLoop=1;jettySize=auto;html=1;entryX=0;entryY=0.5;entryDx=0;entryDy=0;fontSize=24;" parent="1" source="PJYJ61MTsyM6jZx0EHo--19" target="PJYJ61MTsyM6jZx0EHo--11" edge="1">
          <mxGeometry relative="1" as="geometry" />
        </mxCell>
        <mxCell id="PJYJ61MTsyM6jZx0EHo--19" value="Annotate the images via the models" style="whiteSpace=wrap;html=1;rounded=0;fontSize=24;" parent="1" vertex="1">
          <mxGeometry x="500" y="92.5" width="160" height="100" as="geometry" />
        </mxCell>
        <mxCell id="PJYJ61MTsyM6jZx0EHo--25" style="edgeStyle=orthogonalEdgeStyle;rounded=0;orthogonalLoop=1;jettySize=auto;html=1;entryX=0;entryY=0.5;entryDx=0;entryDy=0;fontSize=24;" parent="1" source="PJYJ61MTsyM6jZx0EHo--23" target="PJYJ61MTsyM6jZx0EHo--3" edge="1">
          <mxGeometry relative="1" as="geometry" />
        </mxCell>
        <mxCell id="PJYJ61MTsyM6jZx0EHo--23" value="Visualise the image feature and derive a conclusion" style="whiteSpace=wrap;html=1;rounded=0;fontSize=24;" parent="1" vertex="1">
          <mxGeometry x="880" y="87.5" width="190" height="110" as="geometry" />
        </mxCell>
        <mxCell id="PJYJ61MTsyM6jZx0EHo--31" value="" style="edgeStyle=orthogonalEdgeStyle;rounded=0;orthogonalLoop=1;jettySize=auto;html=1;fontSize=24;" parent="1" source="PJYJ61MTsyM6jZx0EHo--29" target="PJYJ61MTsyM6jZx0EHo--30" edge="1">
          <mxGeometry relative="1" as="geometry" />
        </mxCell>
        <mxCell id="PJYJ61MTsyM6jZx0EHo--29" value="Annotate the 385 image subsets via the models" style="whiteSpace=wrap;html=1;rounded=0;fontSize=24;" parent="1" vertex="1">
          <mxGeometry x="500" y="370" width="230" height="130" as="geometry" />
        </mxCell>
        <mxCell id="rnvi7lOJCw7PkxRH2IfI-1" style="edgeStyle=orthogonalEdgeStyle;rounded=0;orthogonalLoop=1;jettySize=auto;html=1;entryX=0.5;entryY=1;entryDx=0;entryDy=0;" edge="1" parent="1" source="PJYJ61MTsyM6jZx0EHo--30" target="PJYJ61MTsyM6jZx0EHo--3">
          <mxGeometry relative="1" as="geometry" />
        </mxCell>
        <mxCell id="PJYJ61MTsyM6jZx0EHo--30" value="Extract The Image Metrics And Conclude On The Presence Of Bias In The Dataset." style="whiteSpace=wrap;html=1;rounded=0;fontSize=24;" parent="1" vertex="1">
          <mxGeometry x="770" y="370" width="300" height="130" as="geometry" />
        </mxCell>
        <mxCell id="PJYJ61MTsyM6jZx0EHo--35" style="edgeStyle=orthogonalEdgeStyle;rounded=0;orthogonalLoop=1;jettySize=auto;html=1;entryX=0.5;entryY=0;entryDx=0;entryDy=0;fontSize=24;" parent="1" source="PJYJ61MTsyM6jZx0EHo--33" target="PJYJ61MTsyM6jZx0EHo--30" edge="1">
          <mxGeometry relative="1" as="geometry" />
        </mxCell>
        <mxCell id="PJYJ61MTsyM6jZx0EHo--33" value="Compare the human and model annotated subsets to determine any innate annotation model bias" style="whiteSpace=wrap;html=1;rounded=0;fontSize=24;" parent="1" vertex="1">
          <mxGeometry x="770" y="220" width="300" height="120" as="geometry" />
        </mxCell>
        <mxCell id="rnvi7lOJCw7PkxRH2IfI-2" style="edgeStyle=orthogonalEdgeStyle;rounded=0;orthogonalLoop=1;jettySize=auto;html=1;entryX=0;entryY=0.5;entryDx=0;entryDy=0;fontSize=24;" edge="1" parent="1" source="rnvi7lOJCw7PkxRH2IfI-4" target="rnvi7lOJCw7PkxRH2IfI-7">
          <mxGeometry relative="1" as="geometry" />
        </mxCell>
        <mxCell id="rnvi7lOJCw7PkxRH2IfI-3" style="edgeStyle=orthogonalEdgeStyle;rounded=0;orthogonalLoop=1;jettySize=auto;html=1;entryX=0;entryY=0.5;entryDx=0;entryDy=0;fontSize=24;" edge="1" parent="1" source="rnvi7lOJCw7PkxRH2IfI-4" target="rnvi7lOJCw7PkxRH2IfI-16">
          <mxGeometry relative="1" as="geometry">
            <mxPoint x="100" y="840" as="targetPoint" />
          </mxGeometry>
        </mxCell>
        <mxCell id="rnvi7lOJCw7PkxRH2IfI-4" value="Start" style="ellipse;whiteSpace=wrap;html=1;fontSize=24;" vertex="1" parent="1">
          <mxGeometry x="-90" y="680" width="80" height="40" as="geometry" />
        </mxCell>
        <mxCell id="rnvi7lOJCw7PkxRH2IfI-5" value="End" style="ellipse;whiteSpace=wrap;html=1;fontSize=24;" vertex="1" parent="1">
          <mxGeometry x="1090" y="790" width="80" height="40" as="geometry" />
        </mxCell>
        <mxCell id="rnvi7lOJCw7PkxRH2IfI-6" value="" style="edgeStyle=orthogonalEdgeStyle;rounded=0;orthogonalLoop=1;jettySize=auto;html=1;fontSize=24;" edge="1" parent="1" source="rnvi7lOJCw7PkxRH2IfI-7" target="rnvi7lOJCw7PkxRH2IfI-10">
          <mxGeometry relative="1" as="geometry" />
        </mxCell>
        <mxCell id="rnvi7lOJCw7PkxRH2IfI-7" value="Access the LAION-400M dataset" style="rounded=0;whiteSpace=wrap;html=1;fontSize=24;" vertex="1" parent="1">
          <mxGeometry x="70" y="710" width="140" height="120" as="geometry" />
        </mxCell>
        <mxCell id="rnvi7lOJCw7PkxRH2IfI-29" style="edgeStyle=orthogonalEdgeStyle;rounded=0;orthogonalLoop=1;jettySize=auto;html=1;entryX=0;entryY=0.5;entryDx=0;entryDy=0;" edge="1" parent="1" source="rnvi7lOJCw7PkxRH2IfI-10" target="rnvi7lOJCw7PkxRH2IfI-20">
          <mxGeometry relative="1" as="geometry" />
        </mxCell>
        <mxCell id="rnvi7lOJCw7PkxRH2IfI-39" style="edgeStyle=orthogonalEdgeStyle;rounded=0;orthogonalLoop=1;jettySize=auto;html=1;entryX=0.5;entryY=0;entryDx=0;entryDy=0;" edge="1" parent="1" source="rnvi7lOJCw7PkxRH2IfI-10" target="rnvi7lOJCw7PkxRH2IfI-12">
          <mxGeometry relative="1" as="geometry" />
        </mxCell>
        <mxCell id="rnvi7lOJCw7PkxRH2IfI-10" value="Retrieve images of doctors and nurses" style="rounded=0;whiteSpace=wrap;html=1;fontSize=24;" vertex="1" parent="1">
          <mxGeometry x="240" y="710" width="200" height="120" as="geometry" />
        </mxCell>
        <mxCell id="rnvi7lOJCw7PkxRH2IfI-11" value="" style="edgeStyle=orthogonalEdgeStyle;rounded=0;orthogonalLoop=1;jettySize=auto;html=1;fontSize=24;" edge="1" parent="1" source="rnvi7lOJCw7PkxRH2IfI-12" target="rnvi7lOJCw7PkxRH2IfI-28">
          <mxGeometry relative="1" as="geometry" />
        </mxCell>
        <mxCell id="rnvi7lOJCw7PkxRH2IfI-12" value="Human and model annotate the 97 image subsets" style="whiteSpace=wrap;html=1;rounded=0;fontSize=24;" vertex="1" parent="1">
          <mxGeometry x="225" y="850" width="230" height="120" as="geometry" />
        </mxCell>
        <mxCell id="rnvi7lOJCw7PkxRH2IfI-40" style="edgeStyle=orthogonalEdgeStyle;rounded=0;orthogonalLoop=1;jettySize=auto;html=1;entryX=0;entryY=0.5;entryDx=0;entryDy=0;" edge="1" parent="1" source="rnvi7lOJCw7PkxRH2IfI-14" target="rnvi7lOJCw7PkxRH2IfI-22">
          <mxGeometry relative="1" as="geometry" />
        </mxCell>
        <mxCell id="rnvi7lOJCw7PkxRH2IfI-14" value="Extract the image features&amp;nbsp;" style="whiteSpace=wrap;html=1;rounded=0;fontSize=24;" vertex="1" parent="1">
          <mxGeometry x="670" y="652.5" width="120" height="95" as="geometry" />
        </mxCell>
        <mxCell id="rnvi7lOJCw7PkxRH2IfI-15" value="" style="edgeStyle=orthogonalEdgeStyle;rounded=0;orthogonalLoop=1;jettySize=auto;html=1;fontSize=24;" edge="1" parent="1" source="rnvi7lOJCw7PkxRH2IfI-16" target="rnvi7lOJCw7PkxRH2IfI-18">
          <mxGeometry relative="1" as="geometry" />
        </mxCell>
        <mxCell id="rnvi7lOJCw7PkxRH2IfI-16" value="Access the generative models" style="rounded=0;whiteSpace=wrap;html=1;fontSize=24;" vertex="1" parent="1">
          <mxGeometry x="70" y="587.5" width="140" height="90" as="geometry" />
        </mxCell>
        <mxCell id="rnvi7lOJCw7PkxRH2IfI-17" value="" style="edgeStyle=orthogonalEdgeStyle;rounded=0;orthogonalLoop=1;jettySize=auto;html=1;fontSize=24;" edge="1" parent="1" source="rnvi7lOJCw7PkxRH2IfI-18" target="rnvi7lOJCw7PkxRH2IfI-20">
          <mxGeometry relative="1" as="geometry" />
        </mxCell>
        <mxCell id="rnvi7lOJCw7PkxRH2IfI-18" value="Generate images of doctors and nurses" style="whiteSpace=wrap;html=1;rounded=0;fontSize=24;" vertex="1" parent="1">
          <mxGeometry x="240" y="570" width="200" height="125" as="geometry" />
        </mxCell>
        <mxCell id="rnvi7lOJCw7PkxRH2IfI-19" style="edgeStyle=orthogonalEdgeStyle;rounded=0;orthogonalLoop=1;jettySize=auto;html=1;entryX=0;entryY=0.5;entryDx=0;entryDy=0;fontSize=24;" edge="1" parent="1" source="rnvi7lOJCw7PkxRH2IfI-20" target="rnvi7lOJCw7PkxRH2IfI-14">
          <mxGeometry relative="1" as="geometry" />
        </mxCell>
        <mxCell id="rnvi7lOJCw7PkxRH2IfI-20" value="Annotate the images using computer assisted annotation models" style="whiteSpace=wrap;html=1;rounded=0;fontSize=24;" vertex="1" parent="1">
          <mxGeometry x="490" y="611.25" width="160" height="177.5" as="geometry" />
        </mxCell>
        <mxCell id="rnvi7lOJCw7PkxRH2IfI-42" style="edgeStyle=orthogonalEdgeStyle;rounded=0;orthogonalLoop=1;jettySize=auto;html=1;entryX=0;entryY=0.5;entryDx=0;entryDy=0;" edge="1" parent="1" source="rnvi7lOJCw7PkxRH2IfI-22" target="rnvi7lOJCw7PkxRH2IfI-5">
          <mxGeometry relative="1" as="geometry" />
        </mxCell>
        <mxCell id="rnvi7lOJCw7PkxRH2IfI-22" value="Visualise the image features and derive&amp;nbsp;&lt;div&gt;a conclusion on the generative model bias taking into consideration any innate biases within the&amp;nbsp;&lt;span style=&quot;background-color: initial;&quot;&gt;computer assisted annotation models&lt;/span&gt;&lt;/div&gt;" style="whiteSpace=wrap;html=1;rounded=0;fontSize=24;" vertex="1" parent="1">
          <mxGeometry x="840" y="650" width="230" height="320" as="geometry" />
        </mxCell>
        <mxCell id="rnvi7lOJCw7PkxRH2IfI-23" value="" style="edgeStyle=orthogonalEdgeStyle;rounded=0;orthogonalLoop=1;jettySize=auto;html=1;fontSize=24;" edge="1" parent="1" target="rnvi7lOJCw7PkxRH2IfI-26">
          <mxGeometry relative="1" as="geometry">
            <mxPoint x="730" y="925" as="sourcePoint" />
          </mxGeometry>
        </mxCell>
        <mxCell id="rnvi7lOJCw7PkxRH2IfI-41" style="edgeStyle=orthogonalEdgeStyle;rounded=0;orthogonalLoop=1;jettySize=auto;html=1;entryX=0;entryY=0.5;entryDx=0;entryDy=0;" edge="1" parent="1" source="rnvi7lOJCw7PkxRH2IfI-28" target="rnvi7lOJCw7PkxRH2IfI-22">
          <mxGeometry relative="1" as="geometry" />
        </mxCell>
        <mxCell id="rnvi7lOJCw7PkxRH2IfI-28" value="Compare the human and model annotated subsets&amp;nbsp;&lt;div&gt;to determine any innate biases within the computer assisted annotation models&lt;/div&gt;" style="whiteSpace=wrap;html=1;rounded=0;fontSize=24;" vertex="1" parent="1">
          <mxGeometry x="490" y="810" width="300" height="160" as="geometry" />
        </mxCell>
      </root>
    </mxGraphModel>
  </diagram>
</mxfile>
